<svg width="51" height="19" viewBox="0 0 51 19" fill="none" xmlns="http://www.w3.org/2000/svg">
<path d="M4.592 8.76H12.656V11.88H4.592V8.76ZM4.88 18H0.992V1.2H13.688V4.32H4.88V18ZM21.3245 18.288C20.0925 18.288 18.9965 18.088 18.0365 17.688C17.0765 17.288 16.3165 16.744 15.7565 16.056C15.1965 15.368 14.9165 14.576 14.9165 13.68C14.9165 12.848 15.1005 12.104 15.4685 11.448C15.8365 10.776 16.4205 10.152 17.2205 9.576C18.0205 8.984 19.0365 8.408 20.2685 7.848C21.1645 7.432 21.8685 7.064 22.3805 6.744C22.8925 6.424 23.2525 6.12 23.4605 5.832C23.6685 5.528 23.7725 5.224 23.7725 4.92C23.7725 4.504 23.6285 4.168 23.3405 3.912C23.0685 3.656 22.6605 3.528 22.1165 3.528C21.5405 3.528 21.0925 3.672 20.7725 3.96C20.4525 4.248 20.2925 4.616 20.2925 5.064C20.2925 5.304 20.3405 5.544 20.4365 5.784C20.5325 6.008 20.7165 6.272 20.9885 6.576C21.2605 6.864 21.6445 7.24 22.1405 7.704L30.9965 15.912L28.9565 18.288L19.1885 9.216C18.6285 8.704 18.1805 8.224 17.8445 7.776C17.5085 7.328 17.2605 6.888 17.1005 6.456C16.9565 6.024 16.8845 5.576 16.8845 5.112C16.8845 4.296 17.1005 3.576 17.5325 2.952C17.9645 2.328 18.5725 1.848 19.3565 1.512C20.1405 1.16 21.0605 0.983999 22.1165 0.983999C23.0925 0.983999 23.9325 1.144 24.6365 1.464C25.3565 1.768 25.9165 2.208 26.3165 2.784C26.7325 3.36 26.9405 4.048 26.9405 4.848C26.9405 5.552 26.7645 6.2 26.4125 6.792C26.0605 7.368 25.5085 7.912 24.7565 8.424C24.0205 8.936 23.0525 9.456 21.8525 9.984C21.0365 10.352 20.3885 10.712 19.9085 11.064C19.4445 11.4 19.1085 11.744 18.9005 12.096C18.6925 12.448 18.5885 12.84 18.5885 13.272C18.5885 13.672 18.7085 14.032 18.9485 14.352C19.2045 14.672 19.5565 14.92 20.0045 15.096C20.4525 15.272 20.9805 15.36 21.5885 15.36C22.5645 15.36 23.4605 15.136 24.2765 14.688C25.0925 14.224 25.7805 13.544 26.3405 12.648C26.9165 11.736 27.3245 10.632 27.5645 9.336L30.5645 10.272C30.2285 11.904 29.6285 13.32 28.7645 14.52C27.9005 15.72 26.8365 16.648 25.5725 17.304C24.3085 17.96 22.8925 18.288 21.3245 18.288ZM33.7454 18V1.2H41.3774C43.2014 1.2 44.8094 1.552 46.2014 2.256C47.5934 2.944 48.6814 3.912 49.4654 5.16C50.2494 6.408 50.6414 7.888 50.6414 9.6C50.6414 11.296 50.2494 12.776 49.4654 14.04C48.6814 15.288 47.5934 16.264 46.2014 16.968C44.8094 17.656 43.2014 18 41.3774 18H33.7454ZM37.6334 14.808H41.1854C42.3054 14.808 43.2734 14.6 44.0894 14.184C44.9214 13.752 45.5614 13.144 46.0094 12.36C46.4734 11.576 46.7054 10.656 46.7054 9.6C46.7054 8.528 46.4734 7.608 46.0094 6.84C45.5614 6.056 44.9214 5.456 44.0894 5.04C43.2734 4.608 42.3054 4.392 41.1854 4.392H37.6334V14.808Z" fill="#EC994B"/>
</svg>
