<svg width="48" height="48" viewBox="0 0 48 48" fill="none" xmlns="http://www.w3.org/2000/svg">
<circle cx="24" cy="24" r="24" fill="#F9F9F9"/>
<path d="M18 14L15 18V32C15 32.5304 15.2107 33.0391 15.5858 33.4142C15.9609 33.7893 16.4696 34 17 34H31C31.5304 34 32.0391 33.7893 32.4142 33.4142C32.7893 33.0391 33 32.5304 33 32V18L30 14H18Z" stroke="#222224" stroke-width="2" stroke-linecap="round" stroke-linejoin="round"/>
<path d="M15 18H33" stroke="#222224" stroke-width="2" stroke-linecap="round" stroke-linejoin="round"/>
<path d="M28 22C28 23.0609 27.5786 24.0783 26.8284 24.8284C26.0783 25.5786 25.0609 26 24 26C22.9391 26 21.9217 25.5786 21.1716 24.8284C20.4214 24.0783 20 23.0609 20 22" stroke="#222224" stroke-width="2" stroke-linecap="round" stroke-linejoin="round"/>
<circle cx="31.5" cy="15.5" r="7.5" fill="#EC994B"/>
<path d="M31.73 19.06C31.23 19.06 30.7533 18.98 30.3 18.82C29.8467 18.6533 29.4867 18.4333 29.22 18.16L29.57 17.59C29.79 17.8233 30.09 18.0167 30.47 18.17C30.8567 18.3233 31.2733 18.4 31.72 18.4C32.3133 18.4 32.7633 18.27 33.07 18.01C33.3833 17.7433 33.54 17.3967 33.54 16.97C33.54 16.67 33.4667 16.4133 33.32 16.2C33.18 15.98 32.94 15.81 32.6 15.69C32.26 15.57 31.7933 15.51 31.2 15.51H29.71L30.07 12H33.9V12.64H30.36L30.73 12.29L30.42 15.23L30.05 14.87H31.36C32.0667 14.87 32.6333 14.9567 33.06 15.13C33.4867 15.3033 33.7933 15.5467 33.98 15.86C34.1733 16.1667 34.27 16.5267 34.27 16.94C34.27 17.3333 34.1767 17.6933 33.99 18.02C33.8033 18.34 33.5233 18.5933 33.15 18.78C32.7767 18.9667 32.3033 19.06 31.73 19.06Z" fill="white"/>
</svg>
